<svg t="1700402387354" class="icon" viewBox="0 0 1024 1024" version="1.1" xmlns="http://www.w3.org/2000/svg" p-id="4430" width="32" height="32"><path d="M941.681778 953.059556H75.605333a30.833778 30.833778 0 0 1-30.72-30.72c0-16.896 13.824-30.72 30.72-30.72h866.076445c16.896 0 30.72 13.824 30.72 30.72 0 16.896-13.596444 30.72-30.72 30.72z" fill="orange" p-id="4431"></path><path d="M510.464 949.248a30.833778 30.833778 0 0 1-30.72-30.72V151.04L217.6 313.571556a37.376 37.376 0 0 0-17.92 32.028444v571.164444c0 16.839111-13.824 30.72-30.72 30.72a30.833778 30.833778 0 0 1-30.72-30.72V345.315556c0-34.531556 17.408-65.991111 46.819556-84.195556l282.168888-174.648889a48.355556 48.355556 0 0 1 49.095112-0.967111 48.355556 48.355556 0 0 1 24.860444 42.211556v790.755555c0 16.952889-13.596444 30.72-30.72 30.72z" fill="orange" p-id="4432"></path><path d="M863.687111 941.511111a30.833778 30.833778 0 0 1-30.72-30.72V450.56a37.091556 37.091556 0 0 0-17.92-31.516444L502.499556 232.96a30.606222 30.606222 0 0 1-10.808889-41.984 30.833778 30.833778 0 0 1 42.268444-10.808889l312.604445 185.912889c29.411556 17.635556 47.843556 49.891556 47.843555 84.195556v460.288a30.890667 30.890667 0 0 1-30.72 31.004444zM406.983111 479.800889H275.171556a30.833778 30.833778 0 0 1-30.72-30.72c0-16.896 13.824-30.72 30.72-30.72h131.811555c16.896 0 30.72 13.824 30.72 30.72 0 16.896-13.824 30.72-30.72 30.72z m0 152.576H275.171556a30.833778 30.833778 0 0 1-30.72-30.72c0-16.896 13.824-30.72 30.72-30.72h131.811555c16.896 0 30.72 13.824 30.72 30.72 0 16.896-13.824 30.72-30.72 30.72z m0 152.576H275.171556a30.833778 30.833778 0 0 1-30.72-30.72c0-16.896 13.824-30.72 30.72-30.72h131.811555c16.896 0 30.72 13.824 30.72 30.72 0 16.896-13.824 30.72-30.72 30.72z" fill="orange" p-id="4433"></path><path d="M740.807111 577.820444h-131.868444a30.833778 30.833778 0 0 1-30.72-30.72c0-16.896 13.824-30.72 30.72-30.72h131.868444c16.896 0 30.72 13.824 30.72 30.72 0 16.896-13.596444 30.72-30.72 30.72z m0 165.376h-131.868444a30.833778 30.833778 0 0 1-30.72-30.72c0-16.896 13.824-30.72 30.72-30.72h131.868444c16.896 0 30.72 13.824 30.72 30.72 0 16.896-13.596444 30.72-30.72 30.72z" fill="orange" p-id="4434"></path></svg>
