<svg t="1700402985265" class="icon" viewBox="0 0 1024 1024" version="1.1" xmlns="http://www.w3.org/2000/svg" p-id="910" width="16" height="16"><path d="M127.552 822.08v-631.04h762.88v334.464c25.472 6.336 44.544 18.944 63.616 31.552V191.104c0-37.888-25.408-63.104-63.552-63.104H127.616C89.344 128 64 153.216 64 191.104v631.04c0 37.76 25.408 63.04 63.552 63.04h400.576c-6.4-18.944-12.736-44.16-12.736-63.104h-387.84z" fill="#000000" p-id="911"></path><path d="M604.416 317.312c-19.072 0-31.808 12.608-31.808 31.552 0 18.88 12.736 31.552 31.808 31.552h190.72c19.072 0 31.808-12.672 31.808-31.552 0-18.944-12.8-31.552-31.808-31.552h-190.72zM985.856 752.64h-31.808c-6.4-12.608-6.4-25.216-12.672-31.488l25.408-25.28a30.336 30.336 0 0 0 0-44.16l-19.072-18.944a30.912 30.912 0 0 0-44.48 0l-25.472 25.28c-12.672-6.336-25.408-12.608-31.744-12.608v-37.888c-6.4-18.944-19.072-31.552-38.144-31.552h-31.808c-19.072 0-31.808 12.608-31.808 31.552v31.552c-12.672 6.272-25.408 6.272-38.144 12.608l-25.408-25.216a30.912 30.912 0 0 0-44.544 0l-19.072 18.944a30.336 30.336 0 0 0 0 44.16l25.472 25.216c-6.4 12.608-12.736 18.944-12.736 31.552h-19.072c-19.072 6.336-31.808 18.944-31.808 37.824v31.552c0 18.944 12.736 31.552 31.808 31.552h31.808c6.4 12.672 6.4 25.28 12.672 31.552l-25.408 25.28a30.336 30.336 0 0 0 0 44.16l19.072 18.944a30.912 30.912 0 0 0 44.48 0l25.472-25.28c12.736 6.336 25.408 12.608 31.808 12.608v37.888c0 18.944 12.672 31.552 31.744 31.552h31.808c19.072 0 31.808-12.608 31.808-31.552v-37.824c12.672-6.4 25.408-6.4 31.744-12.672l25.472 25.28a30.912 30.912 0 0 0 44.48 0l19.072-18.944a30.336 30.336 0 0 0 0-44.16l-25.408-25.28c6.336-12.608 12.672-25.216 12.672-37.824h38.144c19.072 0 31.808-12.608 31.808-31.552v-31.552c-6.4-12.608-19.072-25.216-38.144-25.216z m-190.72 126.208c-50.88 0-88.96-37.824-88.96-88.32 0-50.496 38.08-88.32 88.96-88.32 50.88 0 88.96 37.824 88.96 88.32 0 50.496-38.08 88.32-88.96 88.32zM604.416 506.56h190.72c19.072 0 31.808-12.608 31.808-31.488 0-18.944-12.8-31.552-31.808-31.552h-190.72c-19.072 0-31.808 12.608-31.808 31.552 0 18.88 12.736 31.488 31.808 31.488zM350.08 695.872l95.36 63.104V538.24c38.144-31.616 63.616-75.776 63.616-126.208 0-88.32-69.952-157.76-158.976-157.76-88.96 0-158.912 69.376-158.912 157.76 0 50.432 25.408 94.592 63.552 126.144v220.864l95.36-63.104z m31.808-56.768L350.08 620.16l-31.744 18.944V569.6h63.552v69.44zM350.08 317.312c50.88 0 95.36 44.16 95.36 94.656 0 50.432-44.48 94.592-95.36 94.592-50.816 0-95.36-44.16-95.36-94.592 0-50.56 44.544-94.72 95.36-94.72z" fill="#000000" p-id="912"></path></svg>
